<svg xmlns="http://www.w3.org/2000/svg" version="1.1" xmlns:xlink="http://www.w3.org/1999/xlink" xmlns:svgjs="http://svgjs.dev/svgjs" viewBox="0 0 800 800"><defs><linearGradient x1="50%" y1="0%" x2="50%" y2="100%" id="hhhorizon-grad"><stop stop-color="hsl(116, 100%, 25%)" stop-opacity="1" offset="25%"></stop><stop stop-color="hsl(316, 100%, 37%)" stop-opacity="1" offset="100%"></stop></linearGradient><linearGradient x1="50%" y1="0%" x2="50%" y2="100%" id="hhhorizon-grad2"><stop stop-color="hsl(316, 100%, 37%)" stop-opacity="1" offset="0%"></stop><stop stop-color="hsl(116, 100%, 25%)" stop-opacity="1" offset="75%"></stop></linearGradient><clipPath id="SvgjsClipPath1182"><rect width="800" height="38" x="0" y="0"></rect><rect width="800" height="37" x="0" y="22"></rect><rect width="800" height="36" x="0" y="43"></rect><rect width="800" height="35" x="0" y="65"></rect><rect width="800" height="34" x="0" y="86"></rect><rect width="800" height="33" x="0" y="108"></rect><rect width="800" height="32" x="0" y="130"></rect><rect width="800" height="31" x="0" y="151"></rect><rect width="800" height="30" x="0" y="173"></rect><rect width="800" height="29" x="0" y="195"></rect><rect width="800" height="28" x="0" y="216"></rect><rect width="800" height="27" x="0" y="238"></rect><rect width="800" height="26" x="0" y="259"></rect><rect width="800" height="25" x="0" y="281"></rect><rect width="800" height="24" x="0" y="303"></rect><rect width="800" height="23" x="0" y="324"></rect><rect width="800" height="22" x="0" y="346"></rect><rect width="800" height="21" x="0" y="368"></rect><rect width="800" height="20" x="0" y="389"></rect><rect width="800" height="19" x="0" y="411"></rect><rect width="800" height="18" x="0" y="432"></rect><rect width="800" height="17" x="0" y="454"></rect><rect width="800" height="16" x="0" y="476"></rect><rect width="800" height="15" x="0" y="497"></rect><rect width="800" height="14" x="0" y="519"></rect><rect width="800" height="13" x="0" y="541"></rect><rect width="800" height="12" x="0" y="562"></rect><rect width="800" height="11" x="0" y="584"></rect><rect width="800" height="10" x="0" y="605"></rect><rect width="800" height="9" x="0" y="627"></rect><rect width="800" height="8" x="0" y="649"></rect><rect width="800" height="7" x="0" y="670"></rect><rect width="800" height="6" x="0" y="692"></rect><rect width="800" height="5" x="0" y="714"></rect><rect width="800" height="4" x="0" y="735"></rect><rect width="800" height="3" x="0" y="757"></rect><rect width="800" height="2" x="0" y="778"></rect><rect width="800" height="1" x="0" y="800"></rect></clipPath><clipPath><rect width="800" height="1" x="0" y="38"></rect><rect width="800" height="2" x="0" y="76"></rect><rect width="800" height="3" x="0" y="114"></rect><rect width="800" height="4" x="0" y="152"></rect><rect width="800" height="5" x="0" y="190"></rect><rect width="800" height="6" x="0" y="228"></rect><rect width="800" height="7" x="0" y="266"></rect><rect width="800" height="8" x="0" y="304"></rect><rect width="800" height="9" x="0" y="342"></rect><rect width="800" height="10" x="0" y="380"></rect><rect width="800" height="11" x="0" y="418"></rect><rect width="800" height="12" x="0" y="456"></rect><rect width="800" height="13" x="0" y="494"></rect><rect width="800" height="14" x="0" y="532"></rect><rect width="800" height="15" x="0" y="570"></rect><rect width="800" height="16" x="0" y="608"></rect><rect width="800" height="17" x="0" y="646"></rect><rect width="800" height="18" x="0" y="684"></rect><rect width="800" height="19" x="0" y="722"></rect><rect width="800" height="20" x="0" y="760"></rect><rect width="800" height="21" x="0" y="798"></rect><rect width="800" height="22" x="0" y="836"></rect></clipPath></defs><rect width="800" height="800" fill="url(#hhhorizon-grad)" clip-path="url(&quot;#SvgjsClipPath1182&quot;)"></rect><circle r="400" cx="400" cy="0" fill="url(#hhhorizon-grad)" clip-path="url(&quot;#SvgjsClipPath1182&quot;)"></circle><circle r="400" cx="400" cy="800" fill="url(#hhhorizon-grad)" clip-path="url(&quot;#SvgjsClipPath1182&quot;)"></circle></svg>