<svg xmlns="http://www.w3.org/2000/svg" version="1.1" xmlns:xlink="http://www.w3.org/1999/xlink" xmlns:svgjs="http://svgjs.dev/svgjs" viewBox="0 0 800 800"><defs><linearGradient x1="50%" y1="0%" x2="50%" y2="100%" id="ffflurry-grad" gradientTransform="rotate(270)"><stop stop-color="hsl(0, 0%, 0%)" stop-opacity="1" offset="0%"></stop><stop stop-color="hsl(0, 100%, 50%)" stop-opacity="1" offset="45%"></stop><stop stop-color="hsl(239, 100%, 50%)" stop-opacity="1" offset="100%"></stop></linearGradient></defs><rect width="100%" height="100%" fill="hsl(0, 0%, 0%)"></rect><g fill="url(#ffflurry-grad)"><rect width="381" height="5" x="295.5" y="270.5" rx="2.5" transform="rotate(45, 486, 273)" opacity="0.41"></rect><rect width="91" height="5" x="229.5" y="625.5" rx="2.5" transform="rotate(45, 275, 628)" opacity="0.22"></rect><rect width="288" height="5" x="428" y="423.5" rx="2.5" transform="rotate(45, 572, 426)" opacity="0.89"></rect><rect width="61" height="5" x="7.5" y="234.5" rx="2.5" transform="rotate(45, 38, 237)" opacity="0.53"></rect><rect width="31" height="5" x="454.5" y="21.5" rx="2.5" transform="rotate(45, 470, 24)" opacity="0.70"></rect><rect width="295" height="5" x="92.5" y="562.5" rx="2.5" transform="rotate(45, 240, 565)" opacity="0.68"></rect><rect width="110" height="5" x="300" y="571.5" rx="2.5" transform="rotate(45, 355, 574)" opacity="0.37"></rect><rect width="161" height="5" x="689.5" y="139.5" rx="2.5" transform="rotate(45, 770, 142)" opacity="0.32"></rect><rect width="401" height="5" x="217.5" y="440.5" rx="2.5" transform="rotate(45, 418, 443)" opacity="0.62"></rect><rect width="68" height="5" x="132" y="376.5" rx="2.5" transform="rotate(45, 166, 379)" opacity="0.61"></rect><rect width="320" height="5" x="549" y="375.5" rx="2.5" transform="rotate(45, 709, 378)" opacity="0.08"></rect><rect width="244" height="5" x="423" y="322.5" rx="2.5" transform="rotate(45, 545, 325)" opacity="0.44"></rect><rect width="610" height="5" x="325" y="390.5" rx="2.5" transform="rotate(45, 630, 393)" opacity="0.91"></rect><rect width="260" height="5" x="253" y="255.5" rx="2.5" transform="rotate(45, 383, 258)" opacity="0.86"></rect><rect width="450" height="5" x="188" y="621.5" rx="2.5" transform="rotate(45, 413, 624)" opacity="0.23"></rect><rect width="230" height="5" x="81" y="480.5" rx="2.5" transform="rotate(45, 196, 483)" opacity="0.37"></rect><rect width="400" height="5" x="488" y="45.5" rx="2.5" transform="rotate(45, 688, 48)" opacity="0.82"></rect><rect width="195" height="5" x="152.5" y="362.5" rx="2.5" transform="rotate(45, 250, 365)" opacity="0.88"></rect><rect width="163" height="5" x="-50.5" y="67.5" rx="2.5" transform="rotate(45, 31, 70)" opacity="0.55"></rect><rect width="475" height="5" x="366.5" y="757.5" rx="2.5" transform="rotate(45, 604, 760)" opacity="0.57"></rect><rect width="196" height="5" x="277" y="161.5" rx="2.5" transform="rotate(45, 375, 164)" opacity="0.18"></rect><rect width="359" height="5" x="-61.5" y="25.5" rx="2.5" transform="rotate(45, 118, 28)" opacity="0.59"></rect><rect width="330" height="5" x="594" y="289.5" rx="2.5" transform="rotate(45, 759, 292)" opacity="0.19"></rect><rect width="267" height="5" x="-4.5" y="447.5" rx="2.5" transform="rotate(45, 129, 450)" opacity="0.44"></rect><rect width="345" height="5" x="258.5" y="535.5" rx="2.5" transform="rotate(45, 431, 538)" opacity="0.17"></rect><rect width="618" height="5" x="-17" y="184.5" rx="2.5" transform="rotate(45, 292, 187)" opacity="0.64"></rect><rect width="259" height="5" x="378.5" y="488.5" rx="2.5" transform="rotate(45, 508, 491)" opacity="0.88"></rect><rect width="201" height="5" x="649.5" y="462.5" rx="2.5" transform="rotate(45, 750, 465)" opacity="0.85"></rect><rect width="60" height="5" x="498" y="63.5" rx="2.5" transform="rotate(45, 528, 66)" opacity="0.92"></rect><rect width="420" height="5" x="-74" y="669.5" rx="2.5" transform="rotate(45, 136, 672)" opacity="0.32"></rect><rect width="399" height="5" x="150.5" y="75.5" rx="2.5" transform="rotate(45, 350, 78)" opacity="0.17"></rect><rect width="151" height="5" x="209.5" y="742.5" rx="2.5" transform="rotate(45, 285, 745)" opacity="0.42"></rect><rect width="518" height="5" x="-75" y="188.5" rx="2.5" transform="rotate(45, 184, 191)" opacity="0.25"></rect><rect width="167" height="5" x="476.5" y="21.5" rx="2.5" transform="rotate(45, 560, 24)" opacity="0.64"></rect><rect width="362" height="5" x="569" y="677.5" rx="2.5" transform="rotate(45, 750, 680)" opacity="0.19"></rect><rect width="442" height="5" x="260" y="133.5" rx="2.5" transform="rotate(45, 481, 136)" opacity="0.61"></rect><rect width="271" height="5" x="392.5" y="207.5" rx="2.5" transform="rotate(45, 528, 210)" opacity="0.19"></rect><rect width="275" height="5" x="618.5" y="598.5" rx="2.5" transform="rotate(45, 756, 601)" opacity="0.20"></rect><rect width="281" height="5" x="616.5" y="525.5" rx="2.5" transform="rotate(45, 757, 528)" opacity="0.56"></rect><rect width="76" height="5" x="223" y="44.5" rx="2.5" transform="rotate(45, 261, 47)" opacity="0.55"></rect><rect width="535" height="5" x="-138.5" y="760.5" rx="2.5" transform="rotate(45, 129, 763)" opacity="0.67"></rect><rect width="401" height="5" x="258.5" y="675.5" rx="2.5" transform="rotate(45, 459, 678)" opacity="0.78"></rect><rect width="136" height="5" x="141" y="641.5" rx="2.5" transform="rotate(45, 209, 644)" opacity="0.09"></rect><rect width="345" height="5" x="-127.5" y="162.5" rx="2.5" transform="rotate(45, 45, 165)" opacity="0.74"></rect><rect width="408" height="5" x="463" y="585.5" rx="2.5" transform="rotate(45, 667, 588)" opacity="0.65"></rect><rect width="264" height="5" x="444" y="609.5" rx="2.5" transform="rotate(45, 576, 612)" opacity="0.73"></rect><rect width="353" height="5" x="436.5" y="95.5" rx="2.5" transform="rotate(45, 613, 98)" opacity="0.95"></rect><rect width="158" height="5" x="108" y="563.5" rx="2.5" transform="rotate(45, 187, 566)" opacity="0.66"></rect><rect width="249" height="5" x="297.5" y="333.5" rx="2.5" transform="rotate(45, 422, 336)" opacity="0.41"></rect><rect width="483" height="5" x="304.5" y="704.5" rx="2.5" transform="rotate(45, 546, 707)" opacity="0.95"></rect><rect width="145" height="5" x="531.5" y="312.5" rx="2.5" transform="rotate(45, 604, 315)" opacity="0.99"></rect><rect width="175" height="5" x="242.5" y="317.5" rx="2.5" transform="rotate(45, 330, 320)" opacity="0.22"></rect><rect width="585" height="5" x="-245.5" y="642.5" rx="2.5" transform="rotate(45, 47, 645)" opacity="0.99"></rect><rect width="152" height="5" x="71" y="90.5" rx="2.5" transform="rotate(45, 147, 93)" opacity="0.58"></rect><rect width="329" height="5" x="290.5" y="747.5" rx="2.5" transform="rotate(45, 455, 750)" opacity="0.52"></rect><rect width="353" height="5" x="583.5" y="24.5" rx="2.5" transform="rotate(45, 760, 27)" opacity="0.14"></rect><rect width="282" height="5" x="359" y="528.5" rx="2.5" transform="rotate(45, 500, 531)" opacity="0.98"></rect><rect width="163" height="5" x="702.5" y="435.5" rx="2.5" transform="rotate(45, 784, 438)" opacity="0.62"></rect><rect width="468" height="5" x="527" y="197.5" rx="2.5" transform="rotate(45, 761, 200)" opacity="0.23"></rect><rect width="69" height="5" x="78.5" y="214.5" rx="2.5" transform="rotate(45, 113, 217)" opacity="0.48"></rect><rect width="332" height="5" x="174" y="389.5" rx="2.5" transform="rotate(45, 340, 392)" opacity="0.44"></rect><rect width="33" height="5" x="742.5" y="84.5" rx="2.5" transform="rotate(45, 759, 87)" opacity="0.79"></rect><rect width="288" height="5" x="-114" y="21.5" rx="2.5" transform="rotate(45, 30, 24)" opacity="0.38"></rect><rect width="392" height="5" x="476" y="482.5" rx="2.5" transform="rotate(45, 672, 485)" opacity="0.89"></rect><rect width="99" height="5" x="565.5" y="661.5" rx="2.5" transform="rotate(45, 615, 664)" opacity="0.41"></rect><rect width="232" height="5" x="264" y="767.5" rx="2.5" transform="rotate(45, 380, 770)" opacity="0.52"></rect><rect width="362" height="5" x="-149" y="455.5" rx="2.5" transform="rotate(45, 32, 458)" opacity="0.87"></rect><rect width="320" height="5" x="431" y="214.5" rx="2.5" transform="rotate(45, 591, 217)" opacity="0.40"></rect><rect width="443" height="5" x="262.5" y="374.5" rx="2.5" transform="rotate(45, 484, 377)" opacity="0.12"></rect><rect width="397" height="5" x="249.5" y="83.5" rx="2.5" transform="rotate(45, 448, 86)" opacity="0.47"></rect><rect width="91" height="5" x="285.5" y="641.5" rx="2.5" transform="rotate(45, 331, 644)" opacity="0.97"></rect><rect width="312" height="5" x="138" y="535.5" rx="2.5" transform="rotate(45, 294, 538)" opacity="0.52"></rect><rect width="308" height="5" x="-74" y="104.5" rx="2.5" transform="rotate(45, 80, 107)" opacity="0.42"></rect><rect width="117" height="5" x="8.5" y="389.5" rx="2.5" transform="rotate(45, 67, 392)" opacity="0.64"></rect><rect width="173" height="5" x="429.5" y="639.5" rx="2.5" transform="rotate(45, 516, 642)" opacity="0.11"></rect><rect width="104" height="5" x="28" y="510.5" rx="2.5" transform="rotate(45, 80, 513)" opacity="0.13"></rect><rect width="185" height="5" x="164.5" y="490.5" rx="2.5" transform="rotate(45, 257, 493)" opacity="0.84"></rect><rect width="436" height="5" x="-183" y="320.5" rx="2.5" transform="rotate(45, 35, 323)" opacity="0.65"></rect><rect width="187" height="5" x="60.5" y="514.5" rx="2.5" transform="rotate(45, 154, 517)" opacity="0.33"></rect><rect width="92" height="5" x="719" y="756.5" rx="2.5" transform="rotate(45, 765, 759)" opacity="0.40"></rect><rect width="36" height="5" x="491" y="442.5" rx="2.5" transform="rotate(45, 509, 445)" opacity="0.59"></rect><rect width="60" height="5" x="658" y="130.5" rx="2.5" transform="rotate(45, 688, 133)" opacity="0.17"></rect><rect width="319" height="5" x="452.5" y="259.5" rx="2.5" transform="rotate(45, 612, 262)" opacity="0.49"></rect><rect width="87" height="5" x="320.5" y="505.5" rx="2.5" transform="rotate(45, 364, 508)" opacity="0.89"></rect><rect width="189" height="5" x="298.5" y="25.5" rx="2.5" transform="rotate(45, 393, 28)" opacity="0.82"></rect><rect width="163" height="5" x="684.5" y="386.5" rx="2.5" transform="rotate(45, 766, 389)" opacity="0.64"></rect><rect width="372" height="5" x="307" y="580.5" rx="2.5" transform="rotate(45, 493, 583)" opacity="0.74"></rect><rect width="90" height="5" x="-16" y="556.5" rx="2.5" transform="rotate(45, 29, 559)" opacity="0.48"></rect><rect width="36" height="5" x="1" y="114.5" rx="2.5" transform="rotate(45, 19, 117)" opacity="0.67"></rect><rect width="451" height="5" x="-109.5" y="304.5" rx="2.5" transform="rotate(45, 116, 307)" opacity="0.20"></rect><rect width="259" height="5" x="102.5" y="432.5" rx="2.5" transform="rotate(45, 232, 435)" opacity="0.79"></rect><rect width="486" height="5" x="445" y="762.5" rx="2.5" transform="rotate(45, 688, 765)" opacity="0.08"></rect><rect width="299" height="5" x="215.5" y="700.5" rx="2.5" transform="rotate(45, 365, 703)" opacity="0.52"></rect><rect width="79" height="5" x="228.5" y="265.5" rx="2.5" transform="rotate(45, 268, 268)" opacity="0.08"></rect><rect width="271" height="5" x="432.5" y="143.5" rx="2.5" transform="rotate(45, 568, 146)" opacity="0.51"></rect><rect width="538" height="5" x="403" y="309.5" rx="2.5" transform="rotate(45, 672, 312)" opacity="0.35"></rect><rect width="383" height="5" x="396.5" y="524.5" rx="2.5" transform="rotate(45, 588, 527)" opacity="0.12"></rect><rect width="347" height="5" x="495.5" y="690.5" rx="2.5" transform="rotate(45, 669, 693)" opacity="0.92"></rect><rect width="390" height="5" x="255" y="200.5" rx="2.5" transform="rotate(45, 450, 203)" opacity="0.85"></rect><rect width="411" height="5" x="-88.5" y="579.5" rx="2.5" transform="rotate(45, 117, 582)" opacity="0.64"></rect><rect width="190" height="5" x="555" y="189.5" rx="2.5" transform="rotate(45, 650, 192)" opacity="0.47"></rect><rect width="46" height="5" x="680" y="230.5" rx="2.5" transform="rotate(45, 703, 233)" opacity="0.72"></rect><rect width="325" height="5" x="58.5" y="114.5" rx="2.5" transform="rotate(45, 221, 117)" opacity="0.22"></rect><rect width="64" height="5" x="163" y="282.5" rx="2.5" transform="rotate(45, 195, 285)" opacity="0.74"></rect><rect width="478" height="5" x="-194" y="741.5" rx="2.5" transform="rotate(45, 45, 744)" opacity="0.46"></rect><rect width="551" height="5" x="-68.5" y="741.5" rx="2.5" transform="rotate(45, 207, 744)" opacity="0.45"></rect><rect width="261" height="5" x="187.5" y="452.5" rx="2.5" transform="rotate(45, 318, 455)" opacity="0.18"></rect><rect width="464" height="5" x="391" y="28.5" rx="2.5" transform="rotate(45, 623, 31)" opacity="0.49"></rect><rect width="253" height="5" x="394.5" y="767.5" rx="2.5" transform="rotate(45, 521, 770)" opacity="0.57"></rect></g></svg>